<svg id="huge-icon-education-outline-student" xmlns="http://www.w3.org/2000/svg" width="17.5" height="21.5" viewBox="0 0 17.5 21.5">
  <path id="Vector_1459" data-name="Vector 1459" d="M1.5.75A.75.75,0,0,0,0,.75ZM0,6.25a.75.75,0,0,0,1.5,0ZM0,.75v5.5H1.5V.75Z" transform="translate(16 3)" fill="currentColor"/>
  <path id="Vector" d="M13.5,5.75V5H12v.75Zm-8,0V5H4v.75Zm3.25-5,.263-.7a.75.75,0,0,0-.527,0Zm-8,3-.263-.7a.75.75,0,0,0,0,1.4Zm8,3-.263.7a.75.75,0,0,0,.527,0Zm8-3,.263.7a.75.75,0,0,0,0-1.4ZM9.461,15.756l-.533-.527h0ZM11.05,14.15l.533.527h0Zm.938-.255.212-.719h0ZM6.45,14.15l.533-.527h0Zm1.589,1.606.533-.527h0ZM5.512,13.894,5.3,13.175h0ZM16,20.75a.75.75,0,0,0,1.5,0Zm-16,0a.75.75,0,0,0,1.5,0Zm12-15v2h1.5v-2Zm-6.5,2v-2H4v2ZM8.75,11A3.25,3.25,0,0,1,5.5,7.75H4A4.75,4.75,0,0,0,8.75,12.5ZM12,7.75A3.25,3.25,0,0,1,8.75,11v1.5A4.75,4.75,0,0,0,13.5,7.75ZM8.487.048l-8,3,.527,1.4,8-3Zm.527,7.4,8-3-.527-1.4-8,3Zm-.527-6,8,3,.527-1.4-8-3Zm.527,4.6-8-3-.527,1.4,8,3Zm.981,10.235,1.589-1.606-1.067-1.055L8.928,15.228Zm1.782-1.669C14.449,15.4,16,17.076,16,18.75h1.5c0-2.661-2.363-4.712-5.3-5.575Zm-5.859.063,1.589,1.606,1.067-1.055L6.984,13.622ZM1.5,18.75c0-1.674,1.551-3.35,4.224-4.136L5.3,13.175C2.363,14.038,0,16.089,0,18.75Zm14.5,0v2h1.5v-2Zm-16,0v2H1.5v-2Zm6.984-5.128A1.7,1.7,0,0,0,5.3,13.175l.423,1.439a.2.2,0,0,1,.194.063Zm4.6,1.055a.2.2,0,0,1,.194-.063l.423-1.439a1.7,1.7,0,0,0-1.683.448Zm-2.655.552a.25.25,0,0,1-.356,0L7.506,16.283a1.75,1.75,0,0,0,2.489,0Z" transform="translate(0 0)" fill="currentColor"/>
</svg>
